<svg width="20" height="40" viewBox="0 0 20 40" fill="none" xmlns="http://www.w3.org/2000/svg">
<g opacity="0.2">
<mask id="mask0_214_3142" style="mask-type:alpha" maskUnits="userSpaceOnUse" x="0" y="0" width="20" height="40">
<rect x="20" y="40" width="20" height="40" transform="rotate(-180 20 40)" fill="#D9D9D9"/>
</mask>
<g mask="url(#mask0_214_3142)">
<circle cx="20" cy="20" r="20" transform="rotate(-180 20 20)" fill="#212529"/>
</g>
</g>
<path d="M8.67079 26.2458C8.56143 26.1364 8.5 25.988 8.5 25.8333C8.5 25.6787 8.56143 25.5303 8.67079 25.4209L14.0917 20L11.3813 17.2896L8.67079 14.5791C8.56453 14.4691 8.50574 14.3217 8.50707 14.1688C8.50839 14.0158 8.56974 13.8695 8.6779 13.7614C8.78605 13.6532 8.93236 13.5919 9.08531 13.5905C9.23826 13.5892 9.38561 13.648 9.49563 13.7543L15.329 19.5876C15.4383 19.697 15.4998 19.8453 15.4998 20C15.4998 20.1547 15.4383 20.303 15.329 20.4124L9.49563 26.2458C9.38623 26.3551 9.23789 26.4166 9.08321 26.4166C8.92853 26.4166 8.78018 26.3551 8.67079 26.2458Z" fill="white" stroke="white" stroke-width="0.5"/>
</svg>
