<svg width="20" height="40" viewBox="0 0 20 40" fill="none" xmlns="http://www.w3.org/2000/svg">
<g opacity="0.2">
<mask id="mask0_214_3136" style="mask-type:alpha" maskUnits="userSpaceOnUse" x="0" y="0" width="20" height="40">
<rect width="20" height="40" fill="#D9D9D9"/>
</mask>
<g mask="url(#mask0_214_3136)">
<circle cy="20" r="20" fill="#212529"/>
</g>
</g>
<g clip-path="url(#clip0_214_3136)">
<path d="M11.3292 13.7543C11.4386 13.8636 11.5 14.012 11.5 14.1667C11.5 14.3213 11.4386 14.4697 11.3292 14.5791L5.90829 20L11.3292 25.4209C11.4355 25.5309 11.4943 25.6783 11.4929 25.8312C11.4916 25.9842 11.4303 26.1305 11.3221 26.2386C11.2139 26.3468 11.0676 26.4081 10.9147 26.4095C10.7617 26.4108 10.6144 26.352 10.5044 26.2458L4.67104 20.4124C4.56168 20.303 4.50025 20.1547 4.50025 20C4.50025 19.8453 4.56168 19.697 4.67104 19.5876L10.5044 13.7543C10.6138 13.6449 10.7621 13.5835 10.9168 13.5835C11.0715 13.5835 11.2198 13.6449 11.3292 13.7543Z" fill="white" stroke="white" stroke-width="0.5"/>
</g>
<defs>
<clipPath id="clip0_214_3136">
<rect width="14" height="14" fill="white" transform="translate(15 27) rotate(-180)"/>
</clipPath>
</defs>
</svg>
